<svg xmlns="http://www.w3.org/2000/svg" viewBox="0 0 88 71.999902" x="0px" y="0px"><path d="m273.37 533.95c-5.505 0-10 4.495-10 10v52c0 5.505 4.495 10 10 10h68c5.505 0 10-4.495 10-10v-52c0-5.505-4.495-10-10-10h-68m0 4h68c3.359 0 6 2.641 6 6v.172l-40 40-40-40v-.172c0-3.359 2.641-6 6-6m-6 11.828l20.607 20.607-20.607 20.606v-41.21m80 0v40.506l-20.254-20.252 20.254-20.254m-23.08 23.08l23.08 23.08v.001c0 3.359-2.641 6-6 6h-68c-3.133 0-5.642-2.301-5.965-5.336l23.4-23.4 15.15 15.15c.781.781 2.047.781 2.828 0l15.504-15.504z" shape-rendering="auto" mix-blend-mode="normal" color-interpolation-filters="linearRGB" isolation="auto" white-space="normal" solid-opacity="1" image-rendering="auto" solid-color="#000000" color="#000" color-rendering="auto" color-interpolation="sRGB" transform="translate(-263.37-533.95)"></path></svg>